<?xml version="1.0" encoding="UTF-8"?>
<svg xmlns="http://www.w3.org/2000/svg" width="190" height="37" viewBox="0 0 190 37" fill="none">
  <path d="M54.2875 27.2714C52.8476 27.2714 51.5634 26.9545 50.4296 26.3179C49.2957 25.6813 48.405 24.8069 47.7602 23.6895C47.1154 22.5747 46.793 21.296 46.793 19.8589C46.793 18.4217 47.1154 17.1212 47.7602 16.0146C48.405 14.9081 49.2957 14.0419 50.4296 13.4135C51.5634 12.7878 52.8503 12.4736 54.2875 12.4736C55.5225 12.4736 56.6399 12.7141 57.6345 13.1922C58.6317 13.6731 59.4132 14.3917 59.9869 15.3507L58.5197 16.3452C58.0224 15.6075 57.405 15.0638 56.6673 14.7141C55.9296 14.3643 55.1263 14.1895 54.2602 14.1895C53.2274 14.1895 52.2957 14.4244 51.4651 14.8944C50.6345 15.3643 49.9815 16.0255 49.5006 16.8725C49.0197 17.7223 48.782 18.7168 48.782 19.8616C48.782 21.0064 49.0225 22.0009 49.5006 22.8507C49.9788 23.7004 50.6345 24.3589 51.4651 24.8288C52.2957 25.2987 53.2274 25.5337 54.2602 25.5337C55.1263 25.5337 55.9296 25.3588 56.6673 25.0091C57.405 24.6594 58.0224 24.1239 58.5197 23.4053L59.9869 24.4026C59.4159 25.3425 58.6317 26.0583 57.6345 26.5474C56.6372 27.0364 55.5225 27.2796 54.2875 27.2796V27.2714Z" fill="white"></path>
  <path d="M73.8998 12.6104L68.4244 24.9546L62.9435 12.6104H60.8971L67.3889 27.0967L66.7605 28.5174C66.337 29.4218 65.8889 30.0529 65.4189 30.4136C64.949 30.7742 64.3916 30.9518 63.7441 30.9518C63.2086 30.9518 62.725 30.8562 62.2905 30.6622C61.8561 30.4682 61.4572 30.195 61.0884 29.8453L60.1758 31.3125C60.6184 31.7551 61.1485 32.0857 61.7659 32.3098C62.3834 32.5311 63.0337 32.6431 63.7168 32.6431C64.3998 32.6431 65.0528 32.5283 65.6266 32.2961C66.1976 32.0666 66.7277 31.6731 67.2168 31.1212C67.7058 30.5666 68.1539 29.8207 68.5583 28.8808L75.8342 12.6131H73.8971L73.8998 12.6104Z" fill="white"></path>
  <path d="M92.4075 15.9844C91.7791 14.8779 90.9185 14.0172 89.8201 13.397C88.7218 12.7795 87.4813 12.4708 86.0988 12.4708C84.8447 12.4708 83.7108 12.7577 82.6972 13.3287C81.8365 13.8123 81.1289 14.4899 80.566 15.3506V6.60742H78.6016V27.1347H80.4841V24.2549C81.0469 25.1729 81.7764 25.8888 82.6699 26.4025C83.6835 26.9844 84.8283 27.274 86.0988 27.274C87.4813 27.274 88.7218 26.9598 89.8201 26.3341C90.9185 25.7085 91.7791 24.8369 92.4075 23.7194C93.0332 22.6047 93.3474 21.3178 93.3474 19.8615C93.3474 18.4052 93.0332 17.0965 92.4075 15.9872V15.9844ZM90.6644 22.8314C90.1835 23.6893 89.5387 24.3533 88.7272 24.8232C87.9157 25.2932 86.9923 25.5281 85.9622 25.5281C84.9321 25.5281 84.0032 25.2932 83.1808 24.8232C82.3611 24.3533 81.7136 23.6893 81.2436 22.8314C80.7737 21.9735 80.5387 20.9817 80.5387 19.8588C80.5387 18.7358 80.7737 17.7194 81.2436 16.8697C81.7136 16.0227 82.3584 15.3615 83.1808 14.8916C84.0005 14.4216 84.9267 14.1866 85.9622 14.1866C86.9977 14.1866 87.9157 14.4216 88.7272 14.8916C89.5387 15.3615 90.1835 16.0227 90.6644 16.8697C91.1425 17.7194 91.383 18.7139 91.383 19.8588C91.383 21.0036 91.1425 21.9762 90.6644 22.8314Z" fill="white"></path>
  <path d="M109.145 15.998C108.536 14.8833 107.702 14.0144 106.642 13.3969C105.582 12.7794 104.369 12.4707 103.006 12.4707C101.642 12.4707 100.446 12.7876 99.3692 13.4243C98.2899 14.0609 97.4402 14.9324 96.8227 16.039C96.2052 17.1456 95.8965 18.4188 95.8965 19.8559C95.8965 21.2931 96.2189 22.5718 96.8637 23.6865C97.5085 24.8013 98.4019 25.6783 99.5467 26.3149C100.689 26.9515 102.017 27.2685 103.53 27.2685C104.692 27.2685 105.757 27.0663 106.724 26.6592C107.692 26.2548 108.5 25.6619 109.145 24.8887L108.039 23.6155C107.487 24.2603 106.825 24.7412 106.06 25.0554C105.295 25.3696 104.47 25.5253 103.585 25.5253C102.459 25.5253 101.459 25.2903 100.582 24.8204C99.7052 24.3505 99.0249 23.6947 98.5358 22.8559C98.126 22.1537 97.891 21.3532 97.8254 20.4625H110.03C110.03 20.3505 110.036 20.2466 110.044 20.1428C110.052 20.0417 110.058 19.9461 110.058 19.8532C110.058 18.3969 109.754 17.11 109.145 15.9953V15.998ZM98.4648 16.7876C98.9074 15.957 99.5249 15.3122 100.317 14.8505C101.11 14.3887 102.006 14.1592 103 14.1592C103.995 14.1592 104.91 14.3887 105.683 14.8505C106.457 15.3122 107.071 15.9516 107.522 16.774C107.888 17.4406 108.104 18.1838 108.172 19.0007H97.8282C97.8992 18.1865 98.1096 17.4488 98.462 16.7876H98.4648Z" fill="white"></path>
  <path d="M117.804 13.3425C116.982 13.8397 116.367 14.531 115.952 15.4135V12.6102H114.069V27.1348H116.034V19.7222C116.034 18.0064 116.466 16.684 117.334 15.7523C118.2 14.8206 119.4 14.3561 120.93 14.3561C121.004 14.3561 121.078 14.3616 121.151 14.3698C121.225 14.378 121.299 14.3835 121.373 14.3835V12.4736C119.952 12.4736 118.763 12.7633 117.804 13.3452V13.3425Z" fill="white"></path>
  <path d="M132.601 23.8691C132.085 24.2762 131.44 24.4784 130.664 24.4784C130.019 24.4784 129.517 24.2844 129.156 23.8964C128.795 23.5084 128.615 22.9647 128.615 22.2653V15.238H132.571V12.4729H128.615V9.09863H125.156V12.4729H122.722V15.238H125.156V22.3472C125.156 23.9893 125.599 25.2297 126.484 26.0685C127.369 26.9073 128.623 27.3281 130.246 27.3281C130.872 27.3281 131.481 27.2461 132.071 27.0795C132.662 26.9128 133.159 26.6642 133.566 26.3336L132.599 23.8718L132.601 23.8691Z" fill="white"></path>
  <path d="M141.412 12.9685C140.705 13.3538 140.137 13.8729 139.71 14.5232V12.3592H136.418V27.1324H139.877V19.9685C139.877 18.4576 140.265 17.3182 141.038 16.5532C141.811 15.7882 142.855 15.4057 144.164 15.4057C144.292 15.4057 144.421 15.4112 144.552 15.4193C144.68 15.4275 144.82 15.4521 144.967 15.4877V12.1953C143.546 12.1953 142.361 12.4549 141.412 12.9685Z" fill="white"></path>
  <path d="M158.883 12.3613V19.8313C158.883 20.8094 158.714 21.6291 158.372 22.293C158.031 22.9569 157.561 23.4542 156.962 23.7875C156.364 24.1209 155.656 24.2848 154.845 24.2848C153.738 24.2848 152.886 23.9569 152.285 23.3039C151.686 22.6509 151.386 21.6591 151.386 20.3313V12.3641H147.927V20.8012C147.927 22.2766 148.195 23.4979 148.73 24.4679C149.266 25.4351 150.011 26.1564 150.97 26.6263C151.929 27.0963 153.036 27.3312 154.29 27.3312C155.432 27.3312 156.484 27.0771 157.443 26.5717C158.08 26.2356 158.613 25.7957 159.047 25.2575V27.1372H162.339V12.3641H158.88L158.883 12.3613Z" fill="white"></path>
  <path d="M177.639 20.7447C177.306 20.2283 176.869 19.8266 176.325 19.5425C175.782 19.2556 175.186 19.0316 174.541 18.8649C173.896 18.6982 173.246 18.5753 172.59 18.4906C171.935 18.4086 171.342 18.3021 170.806 18.1736C170.271 18.0452 169.839 17.8704 169.506 17.649C169.175 17.4277 169.008 17.0944 169.008 16.6518C169.008 16.1736 169.262 15.7747 169.768 15.4633C170.276 15.1491 171.055 14.9933 172.107 14.9933C172.806 14.9933 173.514 15.0726 174.224 15.2283C174.935 15.3868 175.639 15.6764 176.342 16.0999L177.67 13.4715C177.006 13.0671 176.167 12.7529 175.153 12.5316C174.139 12.3103 173.134 12.1982 172.137 12.1982C170.809 12.1982 169.661 12.3868 168.691 12.7665C167.724 13.1436 166.973 13.6791 166.437 14.3704C165.902 15.0616 165.634 15.8786 165.634 16.8185C165.634 17.6682 165.801 18.3485 166.131 18.8649C166.465 19.3813 166.896 19.7911 167.432 20.0971C167.967 20.4004 168.56 20.6326 169.216 20.7884C169.872 20.9441 170.525 21.0698 171.18 21.1627C171.833 21.2556 172.429 21.3567 172.965 21.466C173.5 21.5753 173.932 21.7392 174.265 21.9496C174.598 22.1627 174.762 22.4714 174.762 22.8758C174.762 23.3731 174.517 23.7693 174.03 24.0643C173.541 24.3594 172.754 24.507 171.664 24.507C170.741 24.507 169.82 24.3676 168.899 24.0917C167.976 23.8157 167.183 23.466 166.519 23.0397L165.191 25.6682C165.855 26.1299 166.754 26.5206 167.888 26.843C169.022 27.1654 170.208 27.3266 171.443 27.3266C172.825 27.3266 174.017 27.1381 175.011 26.761C176.008 26.384 176.776 25.8539 177.32 25.1709C177.864 24.4878 178.137 23.6873 178.137 22.7638C178.137 21.9332 177.97 21.2611 177.639 20.7447Z" fill="white"></path>
  <path d="M189.036 23.8691C188.52 24.2762 187.875 24.4784 187.099 24.4784C186.454 24.4784 185.951 24.2844 185.591 23.8964C185.23 23.5084 185.05 22.9647 185.05 22.2653V15.238H189.006V12.4729H185.05V9.09863H181.591V12.4729H179.156V15.238H181.591V22.3472C181.591 23.9893 182.033 25.2297 182.919 26.0685C183.804 26.9073 185.058 27.3281 186.681 27.3281C187.306 27.3281 187.916 27.2461 188.506 27.0795C189.096 26.9128 189.593 26.6642 190 26.3336L189.033 23.8718L189.036 23.8691Z" fill="white"></path>
  <path d="M25.5117 1.07715V7.90773C25.5117 7.90773 29.5609 10.6536 30.7877 14.9569H10.0801V21.6427H30.9352C30.9352 21.6427 30.0691 26.088 25.2959 29.2328V35.9924C25.2959 35.9924 37.2959 32.0525 37.2959 18.5361C37.2959 5.01976 25.5145 1.07988 25.5145 1.07988L25.5117 1.07715Z" fill="white"></path>
  <path d="M23.2708 0.355497V6.71614C23.2708 6.71614 10.7299 2.4156 6.53589 15.0303C6.53589 15.0303 3.39109 24.1013 12.6807 29.7762V36.2816C12.6807 36.2816 1.60148 32.9565 0.153395 21.2434C-0.532395 15.697 1.09055 10.0713 4.83644 5.92379C8.1807 2.22435 13.8719 -1.11171 23.2708 0.352765V0.355497Z" fill="white"></path>
</svg>
